<svg width="24" height="24" viewBox="0 0 24 24" fill="none" xmlns="http://www.w3.org/2000/svg">
<path d="M14.4603 11.9981C14.4603 10.6388 13.3583 9.53702 11.9992 9.53702C10.6399 9.53702 9.53812 10.6388 9.53812 11.9981C9.53812 13.3572 10.6399 14.4592 11.9992 14.4592C13.3583 14.4592 14.4603 13.3572 14.4603 11.9981Z" fill="black"/>
<path fill-rule="evenodd" clip-rule="evenodd" d="M11.7531 5.94531C11.6038 5.94525 11.4655 5.94519 11.3369 5.94539V5.94354C9.96081 5.94508 9.69686 5.95431 9.01576 5.98507C8.2959 6.01814 7.90505 6.13812 7.64479 6.23964C7.30024 6.37377 7.05413 6.53374 6.79572 6.79215C6.5373 7.05056 6.37703 7.29667 6.2432 7.64122C6.14215 7.90148 6.02186 8.29218 5.98894 9.01204C5.95357 9.79036 5.94649 10.0229 5.94649 11.9946C5.94649 13.9662 5.95357 14.2 5.98894 14.9783C6.02171 15.6982 6.14215 16.0889 6.2432 16.3488C6.37733 16.6935 6.5373 16.939 6.79572 17.1974C7.05413 17.4558 7.30024 17.6158 7.64479 17.7496C7.9052 17.8507 8.2959 17.971 9.01576 18.0042C9.79408 18.0396 10.0277 18.0473 11.9992 18.0473C13.9705 18.0473 14.2043 18.0396 14.9826 18.0042C15.7025 17.9713 16.0935 17.8513 16.3535 17.7498C16.6982 17.616 16.9435 17.456 17.2019 17.1976C17.4603 16.9393 17.6206 16.694 17.7544 16.3494C17.8555 16.0895 17.9758 15.6988 18.0087 14.9789C18.0441 14.2006 18.0518 13.9668 18.0518 11.9964C18.0518 10.026 18.0441 9.7922 18.0087 9.01389C17.9759 8.29402 17.8555 7.90333 17.7544 7.64338C17.6203 7.29882 17.4603 7.05272 17.2019 6.7943C16.9437 6.53589 16.698 6.37592 16.3535 6.2421C16.0932 6.14104 15.7025 6.02076 14.9826 5.98784C14.2042 5.95246 13.9705 5.94539 11.9992 5.94539C11.914 5.94539 11.832 5.94535 11.7531 5.94531ZM15.0543 8.05699C15.0543 7.5677 15.4512 7.17131 15.9403 7.17131C16.4294 7.17131 16.8263 7.56785 16.8263 8.05699C16.8263 8.54613 16.4294 8.94298 15.9403 8.94298C15.4512 8.94298 15.0543 8.54613 15.0543 8.05699ZM8.2076 11.9981C8.2076 9.90423 9.9052 8.20658 11.999 8.2065C14.093 8.2065 15.7902 9.90418 15.7902 11.9981C15.7902 14.092 14.0931 15.7889 11.9992 15.7889C9.90528 15.7889 8.2076 14.092 8.2076 11.9981Z" fill="black"/>
<path fill-rule="evenodd" clip-rule="evenodd" d="M6.37057 2.024C6.60791 2.00431 7.82891 2 12.0038 2H15.2586C17.6042 2.00408 17.7377 2.02341 18.1833 2.08794L18.2091 2.09168C19.1732 2.23073 19.9823 2.61527 20.6439 3.24715C21.0146 3.60385 21.2699 3.95271 21.4999 4.41985C21.7801 4.99051 21.9178 5.53041 21.9809 6.33334C21.9944 6.50561 22.0005 9.24725 22.0005 11.9907C22.0005 14.7338 21.9949 17.4805 21.9813 17.6528C21.919 18.4429 21.7814 18.9874 21.5099 19.5473C20.97 20.661 19.9779 21.4731 18.7796 21.7823C18.3451 21.8946 17.9521 21.9473 17.2753 21.9792C17.0338 21.9915 14.5081 21.9945 11.9824 21.9945C9.45675 21.9945 6.93261 21.9869 6.68497 21.9761C6.10046 21.9484 5.64516 21.89 5.23293 21.7838C4.04239 21.4762 3.03181 20.6517 2.50268 19.5535C2.22581 18.9797 2.09506 18.4552 2.02584 17.6215C2.00585 17.3846 2.00123 16.1649 2.00123 11.9934C2.00123 11.4823 2.00103 11.0184 2.00084 10.5968C2.00052 9.85911 2.00025 9.25059 2.00123 8.74396C2.00516 6.39573 2.02426 6.26399 2.08922 5.81585C2.09033 5.80817 2.09146 5.8004 2.0926 5.79252C2.2318 4.82931 2.61635 4.01901 3.25084 3.36036C3.59924 2.9992 3.95225 2.74155 4.39986 2.51929C4.98067 2.23011 5.5138 2.09521 6.37057 2.024ZM8.95485 4.65948C9.74239 4.62364 9.99404 4.61487 11.9992 4.61487H11.9969C14.0027 4.61487 14.2534 4.62364 15.0409 4.65948C15.8269 4.69547 16.3638 4.81991 16.8344 5.00249C17.3205 5.19091 17.7312 5.44317 18.1419 5.85387C18.5526 6.26425 18.8048 6.67617 18.994 7.16177C19.1755 7.63122 19.3001 8.16774 19.337 8.95374C19.3724 9.74129 19.3817 9.99293 19.3817 11.9981C19.3817 14.0033 19.3724 14.2543 19.337 15.0418C19.3001 15.8275 19.1755 16.3642 18.994 16.8338C18.8048 17.3192 18.5526 17.7312 18.1419 18.1416C17.7317 18.5522 17.3204 18.8051 16.8349 18.9937C16.3651 19.1763 15.828 19.3007 15.042 19.3367C14.2545 19.3726 14.0036 19.3813 11.9983 19.3813C9.99327 19.3813 9.74178 19.3726 8.95423 19.3367C8.16838 19.3007 7.63171 19.1763 7.16195 18.9937C6.67666 18.8051 6.26474 18.5522 5.85451 18.1416C5.44397 17.7312 5.19171 17.3192 5.00298 16.8336C4.82055 16.3642 4.69611 15.8277 4.65996 15.0417C4.62428 14.2541 4.61536 14.0033 4.61536 11.9981C4.61536 9.99293 4.62459 9.74113 4.65981 8.95359C4.69519 8.16789 4.81978 7.63122 5.00282 7.16162C5.19202 6.67617 5.44428 6.26425 5.85497 5.85387C6.26535 5.44333 6.67728 5.19107 7.16288 5.00249C7.63233 4.81991 8.16884 4.69547 8.95485 4.65948Z" fill="black"/>
</svg>
