<svg width="24" height="24" viewBox="0 0 24 24" fill="none" xmlns="http://www.w3.org/2000/svg">
<path d="M16.3873 4.06016C16.224 3.88737 15.9383 3.88737 15.775 4.06016L15.6117 4.23295C15.4484 4.40573 15.4484 4.69372 15.6117 4.88091L16.6186 5.91765C16.7547 6.06164 16.7411 6.29202 16.605 6.42162L16.4825 6.55121C16.3465 6.6952 16.1288 6.6952 15.9927 6.55121L14.9858 5.51447C14.4688 4.9817 14.4688 4.10335 14.9722 3.57059L15.1355 3.39779C15.6525 2.86503 16.4961 2.86503 17.0132 3.41219L17.952 4.39134L18.0201 4.46333C18.1561 4.60732 18.1561 4.82331 18.0201 4.9673L17.8976 5.09689C17.7615 5.24089 17.5302 5.25529 17.3942 5.11129L16.3873 4.06016Z" fill="black"/>
<path d="M20.9727 4.8809C21.136 4.70812 21.136 4.42013 20.9727 4.24734L20.8094 4.07455C20.6461 3.90177 20.3604 3.90177 20.1971 4.07455L19.1902 5.11129C19.0542 5.25528 18.8365 5.24088 18.7004 5.09689L18.5779 4.9673C18.4419 4.82331 18.4419 4.60732 18.5643 4.46333L19.5712 3.41219C20.0883 2.87942 20.9319 2.86502 21.4489 3.39779L21.6122 3.57058C22.1293 4.11775 22.1293 4.9817 21.6122 5.51447L20.6734 6.49361L20.6053 6.56561C20.4693 6.7096 20.2516 6.7096 20.1155 6.56561L19.993 6.43601C19.857 6.29202 19.8434 6.06164 19.9794 5.93204L20.9727 4.8809Z" fill="black"/>
<path d="M15.5981 8.81187C15.4348 8.98466 15.4348 9.27264 15.5981 9.45983L15.7614 9.63262C15.9247 9.80541 16.2104 9.80541 16.3737 9.63262L17.3806 8.59588C17.5166 8.45189 17.7343 8.46629 17.8704 8.61028L17.9929 8.73987C18.1289 8.88387 18.1289 9.09985 18.0065 9.24384L16.9996 10.2806C16.4825 10.8277 15.6389 10.8278 15.1219 10.295L14.9586 10.1222C14.4415 9.58942 14.4415 8.71107 14.9722 8.1927L15.9111 7.21356L15.9791 7.14157C16.1152 6.99758 16.3329 6.99758 16.4689 7.14157L16.5914 7.27116C16.7274 7.41515 16.7411 7.64554 16.605 7.77513L15.5981 8.81187Z" fill="black"/>
<path d="M20.1835 9.60382C20.3468 9.77661 20.6325 9.77661 20.7958 9.60382L20.9591 9.43103C21.1224 9.25824 21.136 8.97026 20.9591 8.78307L19.9522 7.74633C19.8161 7.60234 19.8298 7.38635 19.9658 7.24236L20.0883 7.11276C20.2243 6.96877 20.442 6.96878 20.5781 7.09837L21.585 8.1351C22.102 8.66787 22.1021 9.54622 21.5986 10.079L21.4353 10.2518C20.9183 10.799 20.0747 10.7846 19.5576 10.2374L18.6188 9.25824L18.5507 9.18624C18.4147 9.04225 18.4147 8.82627 18.5507 8.68227L18.6732 8.55268C18.8093 8.40869 19.0406 8.39429 19.1766 8.53828L20.1835 9.60382Z" fill="black"/>
<path d="M11.6471 12.5124C12.4499 13.4484 12.9397 14.6579 12.9397 15.997H12.9533V16.8754L12.9125 19.568C12.9125 19.7984 12.722 20 12.4907 20H9.98707C9.75576 20 9.56526 19.7984 9.56526 19.568V16.8754H9.55166V15.997C9.55166 15.0611 8.8169 14.2979 7.90526 14.2979H7.02083C6.1228 14.2979 5.37443 15.0611 5.37443 15.997H5.34722V19.568C5.34722 19.7984 5.15673 20 4.92542 20H2.4218C2.19049 20 2 19.7984 2 19.568V3.49857C2 3.26819 2.19049 3.0666 2.4218 3.0666H4.93902C5.15673 3.0666 5.34722 3.26819 5.36083 3.49857V11.0869C5.87788 10.8997 6.43575 10.7845 7.02083 10.7845H7.86444V10.7701C8.76247 10.7701 9.51084 10.007 9.51084 9.07105L9.56526 8.1927C9.59248 7.99111 9.76936 7.83272 9.97346 7.83272H12.4907C12.6948 7.83272 12.8717 7.99111 12.8989 8.1927H12.9125V9.07105C12.9125 10.3958 12.4363 11.5909 11.6471 12.5124Z" fill="black"/>
</svg>
