<svg width="24" height="24" viewBox="0 0 24 24" fill="none" xmlns="http://www.w3.org/2000/svg">
<path fill-rule="evenodd" clip-rule="evenodd" d="M22 5.18706C22 3.42677 20.5729 2 18.8132 2H5.18706C3.42706 2 2 3.42677 2 5.18706V18.8132C2 20.5729 3.42706 22 5.18706 22H18.8132C20.5729 22 22 20.5729 22 18.8132V5.18706ZM18.4021 15.0958C18.4021 15.0958 18.6842 15.2334 18.7431 15.4284C18.7908 15.5842 18.76 15.8986 18.3081 16.1554C17.9507 16.3575 17.6533 16.4371 17.4135 16.5012C17.4018 16.5043 17.3904 16.5074 17.379 16.5104C17.3637 16.5146 17.3488 16.5187 17.3341 16.5227C17.2802 16.5373 17.2306 16.5508 17.1854 16.5652C17.1475 16.5778 17.0661 16.6101 17.0296 16.6564C16.992 16.704 16.9813 16.7617 16.9694 16.8255C16.968 16.8331 16.9665 16.8409 16.965 16.8487C16.9398 16.996 16.8851 17.1925 16.6942 17.3244C16.5 17.4589 16.2551 17.4687 15.9445 17.4811L15.9336 17.4816L15.9317 17.4816C15.6022 17.4943 15.1931 17.5099 14.7239 17.6654C14.5156 17.7339 14.3247 17.8506 14.1041 17.9854L14.0881 17.9952C13.6082 18.2899 13.0103 18.6562 11.9957 18.6562C10.9824 18.6562 10.3888 18.2913 9.91167 17.998C9.68432 17.8577 9.48644 17.7356 9.26892 17.664C8.79966 17.5085 8.39053 17.4929 8.06105 17.4802L8.05921 17.4802L8.05837 17.4801C7.74301 17.4675 7.49487 17.4576 7.29857 17.323C7.12035 17.1995 7.06 17.0213 7.03334 16.8767C7.03038 16.8617 7.02777 16.847 7.02522 16.8326C7.01323 16.765 7.00251 16.7045 6.96317 16.6536C6.92528 16.6045 6.83686 16.5708 6.80178 16.5596C6.74564 16.5427 6.68389 16.5259 6.61513 16.5076C6.36954 16.4417 5.94572 16.321 5.59768 16.0964C5.38577 15.9589 5.17667 15.7021 5.25525 15.4284C5.30858 15.2432 5.58926 15.1 5.58926 15.1C5.61278 15.0859 5.63531 15.0748 5.65521 15.0649C5.65906 15.063 5.66281 15.0612 5.66645 15.0593C6.13658 14.832 6.55338 14.5583 6.90423 14.2482C7.1863 13.9984 7.42769 13.7247 7.62135 13.4314C7.85431 13.082 7.96518 12.7873 8.0143 12.6245C8.04377 12.5122 8.03956 12.4701 8.0171 12.414C7.99605 12.3606 7.92869 12.3101 7.90904 12.2961C7.75763 12.1912 7.52702 12.041 7.37307 11.9407L7.34769 11.9242C7.32797 11.9114 7.30864 11.8988 7.28978 11.8866C7.17847 11.8144 7.08392 11.7531 7.02632 11.7123C6.80599 11.5579 6.65583 11.4007 6.56601 11.2309C6.45093 11.012 6.4369 10.7706 6.52672 10.5334C6.64881 10.2135 6.94773 10.0226 7.32664 10.0226C7.41225 10.0226 7.49926 10.0324 7.58486 10.0507C7.80239 10.0984 8.00868 10.1756 8.1813 10.2429C8.19533 10.2486 8.20796 10.2387 8.20796 10.2247C8.18832 9.75317 8.16867 9.22409 8.21638 8.67537C8.25849 8.17998 8.35953 7.76458 8.52653 7.4011C8.69353 7.03623 8.91106 6.76678 9.08087 6.57171C9.21278 6.42014 9.50328 6.12684 9.95798 5.86721C10.5628 5.52198 11.2491 5.34656 11.9999 5.34656C12.7521 5.34656 13.4398 5.52198 14.0432 5.86721C14.4726 6.1128 14.7575 6.38646 14.9189 6.57171C15.0887 6.76678 15.3063 7.03623 15.4733 7.4011C15.6389 7.76458 15.7413 8.18138 15.7834 8.67537C15.8311 9.22129 15.8101 9.79667 15.7918 10.2247C15.7904 10.2387 15.8045 10.2486 15.8171 10.2429C15.9897 10.1756 16.196 10.0984 16.4135 10.0507C16.5005 10.0324 16.5875 10.0226 16.6717 10.0226C17.0521 10.0226 17.351 10.2135 17.4717 10.5334C17.5615 10.7706 17.5475 11.012 17.4324 11.2309C17.344 11.4007 17.1924 11.5579 16.9721 11.7123C16.9033 11.76 16.7868 11.8358 16.6507 11.9242C16.4935 12.0252 16.2381 12.1908 16.0795 12.3031C16.0781 12.3043 16.0766 12.3056 16.075 12.3069C16.0482 12.3291 15.9985 12.3703 15.9813 12.414C15.9588 12.4687 15.9546 12.5108 15.9813 12.6161C16.029 12.7774 16.1399 13.075 16.377 13.4314C16.5707 13.7233 16.8121 13.9984 17.0942 14.2482C17.445 14.5583 17.8618 14.832 18.3319 15.0593C18.3494 15.0681 18.3702 15.079 18.3933 15.0912L18.4021 15.0958Z" fill="black"/>
</svg>
