<svg width="24" height="24" viewBox="0 0 24 24" fill="none" xmlns="http://www.w3.org/2000/svg">
<path fill-rule="evenodd" clip-rule="evenodd" d="M20.7368 7.29811V9.88484C19.0284 9.88484 17.4466 9.34199 16.1549 8.41945V15.1257C16.1549 18.4804 13.434 21.2 10.0776 21.2C8.82529 21.2 7.66131 20.8215 6.69439 20.1726C5.06954 19.0823 4 17.2287 4 15.1257C4 11.7712 6.72099 9.05162 10.0776 9.05169C10.3566 9.05155 10.6352 9.0705 10.9115 9.10825V9.85284L10.9114 12.4678C10.6455 12.3834 10.3619 12.3377 10.0677 12.3377C8.53227 12.3377 7.28778 13.5817 7.28778 15.1162C7.28778 16.2011 7.90985 17.1405 8.81698 17.5981C9.19307 17.7877 9.61791 17.8947 10.0677 17.8947C11.6 17.8947 12.8423 16.6557 12.8476 15.1257V2H16.1548V2.42268C16.1665 2.54902 16.1833 2.67489 16.2052 2.79993C16.4347 4.10846 17.2176 5.22645 18.3041 5.90412C19.0337 6.35931 19.8768 6.60005 20.7368 6.59874L20.7368 7.29811Z" fill="black"/>
</svg>
