<svg width="24" height="24" viewBox="0 0 24 24" fill="none" xmlns="http://www.w3.org/2000/svg">
<path fill-rule="evenodd" clip-rule="evenodd" d="M8.2896 20C15.8368 20 19.9648 13.8438 19.9648 8.50525C19.9648 8.33039 19.9648 8.15633 19.9528 7.98305C20.7559 7.41115 21.4491 6.70305 22 5.89188C21.2511 6.21859 20.4567 6.43285 19.6432 6.5275C20.4998 6.02261 21.1409 5.22851 21.4472 4.29298C20.6417 4.76355 19.7605 5.09519 18.8416 5.27358C17.5697 3.942 15.5486 3.61609 13.9116 4.47861C12.2747 5.34112 11.429 7.17755 11.8488 8.95814C8.54952 8.7953 5.47558 7.26104 3.392 4.7372C2.3029 6.58314 2.85919 8.94464 4.6624 10.1301C4.00939 10.1111 3.37062 9.93765 2.8 9.62448C2.8 9.64102 2.8 9.65835 2.8 9.67568C2.80053 11.5988 4.1774 13.2551 6.092 13.6359C5.4879 13.7981 4.85406 13.8218 4.2392 13.7052C4.77676 15.3509 6.31726 16.4783 8.0728 16.5108C6.61979 17.6351 4.82485 18.2454 2.9768 18.2436C2.65032 18.243 2.32416 18.2235 2 18.1853C3.87651 19.3709 6.05993 19.9998 8.2896 19.9968" fill="black"/>
</svg>
