<svg width="24" height="24" viewBox="0 0 24 24" fill="none" xmlns="http://www.w3.org/2000/svg">
<path fill-rule="evenodd" clip-rule="evenodd" d="M20 2C21.1045 2 22 2.8955 22 4V20C22 21.1045 21.1045 22 20 22H4C2.8955 22 2 21.1045 2 20V4C2 2.8955 2.8955 2 4 2H20ZM16.7292 5.75267C14.7262 5.68817 13.3692 6.818 12.6587 9.14417C13.0257 8.98683 13.3825 8.90717 13.7285 8.90717C14.4488 8.90717 14.7747 9.30413 14.706 10.096L14.7013 10.145C14.6686 10.5198 14.478 11.0224 14.1295 11.6533L14.0495 11.7956C14.0357 11.8197 14.0217 11.8439 14.0075 11.8684L13.9197 12.017C13.8896 12.0673 13.8586 12.1182 13.8267 12.1699L13.7285 12.327L13.6892 12.3887L13.6119 12.5079C13.5991 12.5274 13.5864 12.5466 13.5738 12.5655L13.4991 12.6767C13.4868 12.6947 13.4745 12.7126 13.4624 12.7302L13.3902 12.8332C13.3783 12.8499 13.3665 12.8664 13.3548 12.8827L13.2852 12.9775C13.2737 12.9929 13.2623 13.008 13.251 13.0229L13.184 13.1097L13.1187 13.191C13.0757 13.2434 13.0339 13.2921 12.9933 13.3373L12.9331 13.4023C12.706 13.6413 12.5168 13.7607 12.3657 13.7607C12.1333 13.7607 11.9126 13.4989 11.7034 12.9749L11.6666 12.8797C11.6605 12.8634 11.6544 12.8469 11.6483 12.8301L11.6119 12.7268C11.6058 12.7091 11.5998 12.6912 11.5938 12.673L11.5577 12.5615L11.5218 12.4446L11.4862 12.3222L11.4509 12.1943C11.445 12.1726 11.4391 12.1506 11.4333 12.1284L11.3983 11.9924L11.3635 11.8509L11.329 11.704C11.3175 11.6541 11.3061 11.6034 11.2947 11.5517L11.2761 11.475L11.2489 11.354L11.2111 11.1728L11.1778 11.0039L11.1228 10.7105L11.0508 10.3076L10.9825 9.91035L10.855 9.14161L10.7256 8.33586C10.7205 8.30401 10.7154 8.27195 10.7103 8.23967C10.4505 6.59417 9.75817 5.8255 8.63383 5.93367C8.32388 5.96199 7.91273 6.15526 7.40093 6.51351L7.28972 6.59281L7.17543 6.67715C7.15613 6.69163 7.13669 6.70632 7.11713 6.72122L6.99822 6.81314C6.97815 6.82888 6.95794 6.84483 6.93761 6.86099L6.81409 6.96049L6.68749 7.06504L6.55782 7.17464C6.53595 7.19333 6.51396 7.21223 6.49183 7.23133C5.9381 7.73333 5.37711 8.2348 4.80964 8.73607L4.38283 9.112L5.0625 9.98767L5.22315 9.87615L5.37191 9.77459L5.50879 9.68298L5.63378 9.60133L5.7105 9.55244L5.78193 9.50798L5.84808 9.46795L5.90895 9.43237L5.99033 9.38731L6.03797 9.36283C6.06047 9.35171 6.08099 9.34224 6.09952 9.33445L6.13394 9.32109C6.16041 9.31181 6.18138 9.30717 6.19683 9.30717C6.46603 9.30717 6.72562 9.53608 6.97586 9.99364L7.02268 10.0821L7.06927 10.1759C7.09251 10.2242 7.11567 10.2745 7.13875 10.3267L7.1848 10.434C7.20011 10.4706 7.21539 10.5081 7.23063 10.5465L7.27624 10.6645L7.32164 10.7878C7.32919 10.8088 7.33673 10.83 7.34426 10.8514L7.38933 10.9828L7.43419 11.1194C7.44165 11.1427 7.4491 11.1661 7.45654 11.1898L7.50107 11.3345L7.54539 11.4846L7.5895 11.64L8.75583 15.9173C9.33833 17.4728 10.0512 18.25 10.894 18.25C11.7318 18.25 12.6848 17.7649 13.7527 16.7951L13.8741 16.6832C13.9554 16.6072 14.0373 16.5285 14.1198 16.447L14.2442 16.3228C14.265 16.3017 14.2858 16.2805 14.3067 16.2591L14.4325 16.1285L14.5593 15.9939C14.6017 15.9483 14.6443 15.9021 14.6871 15.8551L14.8158 15.7122L14.9456 15.5651C14.989 15.5154 15.0325 15.465 15.0763 15.4139L15.208 15.2585C15.23 15.2323 15.2521 15.2059 15.2742 15.1793L15.4074 15.0178L15.5415 14.852L15.6766 14.6822C15.6992 14.6535 15.7219 14.6247 15.7446 14.5957L15.8812 14.4197C15.9347 14.3508 15.9875 14.2823 16.0396 14.2143L16.1937 14.0113L16.3434 13.8109L16.4887 13.6129C16.608 13.4489 16.7227 13.2876 16.8329 13.1288L16.963 12.9394C17.0056 12.8767 17.0475 12.8144 17.0886 12.7526L17.2099 12.5682C17.2893 12.4461 17.3658 12.3256 17.4394 12.2068L17.5475 12.0298L17.6513 11.8553C18.3965 10.5847 18.789 9.51351 18.8288 8.64167C18.9147 6.75917 18.2142 5.79617 16.7292 5.75267Z" fill="black"/>
</svg>
