<svg width="24" height="24" viewBox="0 0 24 24" fill="none" xmlns="http://www.w3.org/2000/svg">
<path d="M16.8956 2.54937C17.0503 2.27141 17.2372 2 17.6679 2H20.5819C20.7556 2 20.892 2.06556 20.9654 2.18422C21.0414 2.30746 21.0395 2.47005 20.9595 2.62935L14.573 13.9215C14.569 13.9274 14.569 13.9346 14.573 13.9405L18.6394 21.37C18.7201 21.53 18.722 21.6925 18.6453 21.8158C18.5719 21.9344 18.4362 22 18.2625 22H15.3813C14.9394 22 14.7185 21.7063 14.5756 21.4506C14.5756 21.4506 10.4875 13.951 10.477 13.9313C10.6815 13.5694 16.8956 2.54937 16.8956 2.54937Z" fill="black"/>
<path d="M5.15659 6.13011C5.23001 6.0108 5.37621 5.94983 5.54993 5.94983H8.43442C8.87692 5.94983 9.09392 6.235 9.23749 6.49067C9.23749 6.49067 11.2088 9.92977 11.2206 9.94878C11.1039 10.1546 8.10664 15.4555 8.10664 15.4555C7.95914 15.7217 7.75132 16.0128 7.31996 16.0128H4.43547C4.26175 16.0128 4.13194 15.9347 4.05852 15.8161C3.98247 15.6928 3.97854 15.5329 4.05852 15.3736L7.12329 9.96517C7.12656 9.95927 7.12656 9.95533 7.12329 9.94878L5.17298 6.57262C5.09234 6.412 5.08054 6.25336 5.15659 6.13011Z" fill="black"/>
</svg>
