<svg width="24" height="24" viewBox="0 0 24 24" fill="none" xmlns="http://www.w3.org/2000/svg">
<path d="M13.7933 7.68851L19.8784 6.06174C19.0927 3.89648 17.882 1.90449 16.3125 0.205609C16.2541 0.142318 16.1835 0.0915104 16.105 0.0561821C16.0265 0.0208538 15.9417 0.00175406 15.8556 0.000131202C15.7696 -0.00161649 15.6841 0.0141127 15.6043 0.0463201C15.5567 0.0655447 15.5117 0.090262 15.4703 0.120098C15.4421 0.140321 15.4156 0.162916 15.3911 0.187508L10.4933 5.09713H12.7716C13.0423 5.09792 13.3017 5.20592 13.4932 5.39752C13.6846 5.58913 13.7925 5.84879 13.7933 6.11977V7.68851Z" fill="black"/>
<path fill-rule="evenodd" clip-rule="evenodd" d="M1.02173 5.86412H11.2391C11.5101 5.86413 11.7699 5.97187 11.9615 6.16366C12.1532 6.35544 12.2608 6.61555 12.2608 6.88677V17.1132C12.2608 17.3845 12.1532 17.6446 11.9616 17.8364C11.7699 18.0281 11.5101 18.1359 11.2391 18.1359H1.02174C0.750756 18.1359 0.490873 18.0282 0.29926 17.8364C0.107647 17.6446 0 17.3845 0 17.1132V6.88677C0 6.61554 0.107646 6.35543 0.299258 6.16365C0.49087 5.97186 0.750751 5.86412 1.02173 5.86412ZM5.99698 11.4384C6.06846 11.5859 6.12573 11.74 6.16798 11.8984H6.18404C6.22262 11.743 6.27817 11.5923 6.3497 11.4491L7.89965 8.52727C7.95766 8.41791 8.04433 8.32641 8.15035 8.26261C8.25637 8.1988 8.37775 8.16508 8.50147 8.16508C8.62096 8.16508 8.73834 8.19654 8.84185 8.25629C8.94537 8.31603 9.03136 8.40197 9.09121 8.50549C9.15106 8.609 9.18267 8.72644 9.18286 8.84604C9.18305 8.96564 9.15181 9.08318 9.09228 9.18688L6.94791 12.9226C6.88856 13.026 6.85733 13.1432 6.85733 13.2624V15.1529C6.85733 15.3338 6.78554 15.5073 6.65774 15.6352C6.52995 15.7631 6.35663 15.8349 6.17591 15.8349H6.03715C5.94766 15.8349 5.85905 15.8173 5.77638 15.783C5.6937 15.7487 5.61858 15.6985 5.55531 15.6352C5.49203 15.5718 5.44184 15.4967 5.40759 15.4139C5.37335 15.3312 5.35572 15.2425 5.35572 15.1529V13.2847C5.35572 13.1683 5.32595 13.0538 5.26924 12.9522L3.1644 9.17965C3.10649 9.07584 3.07669 8.95869 3.07796 8.8398C3.07923 8.72091 3.11154 8.60442 3.17167 8.50188C3.23179 8.39934 3.31766 8.31432 3.42074 8.25524C3.52383 8.19616 3.64055 8.16508 3.75934 8.16508H3.89329C4.01834 8.16508 4.14097 8.19952 4.24776 8.26462C4.35456 8.32973 4.44139 8.42299 4.49876 8.5342L5.99698 11.4384Z" fill="black"/>
<path d="M13.7934 18.6472V16.3396L19.8859 17.9787C19.0985 20.1303 17.8898 22.1089 16.3255 23.7957C16.267 23.8586 16.1966 23.9091 16.1182 23.9442C16.0399 23.9793 15.9552 23.9983 15.8694 23.9999C15.7836 24.0015 15.6983 23.9858 15.6187 23.9537C15.5391 23.9216 15.4667 23.8737 15.406 23.813C14.5559 22.9634 13.8511 22.255 13.1445 21.5447L13.1437 21.544C12.5515 20.9487 11.958 20.3521 11.2764 19.6699H12.7716C13.0423 19.6691 13.3018 19.5611 13.4932 19.3694C13.6846 19.1778 13.7926 18.9182 13.7934 18.6472Z" fill="black"/>
<path d="M22.6804 17.1421L13.7934 14.7512V9.27631L22.6836 6.89955C22.766 6.87737 22.8521 6.87197 22.9366 6.88368C23.0211 6.89539 23.1025 6.92397 23.1758 6.96773C23.2491 7.01149 23.3129 7.06953 23.3633 7.13842C23.4138 7.2073 23.4499 7.28563 23.4696 7.36876C24.1776 10.43 24.1768 13.6127 23.4673 16.6735C23.4476 16.7567 23.4113 16.835 23.3608 16.9039C23.3102 16.9728 23.2464 17.0308 23.173 17.0746C23.0996 17.1183 23.0181 17.1468 22.9335 17.1584C22.8489 17.17 22.7628 17.1645 22.6804 17.1421Z" fill="black"/>
</svg>
